<svg xmlns="http://www.w3.org/2000/svg" width="100" height="100" viewBox="0 0 100 100">
  <g id="Polygon_1" data-name="Polygon 1" fill="none">
    <path d="M56.309,1.463a6,6,0,0,1,6.438,1.28l3.134,3.07a6,6,0,0,0,4.137,1.714l4.386.045a6,6,0,0,1,5.457,3.647l1.72,4.035a6,6,0,0,0,3.166,3.166l4.035,1.72A6,6,0,0,1,92.428,25.6l.045,4.386a6,6,0,0,0,1.714,4.137l3.07,3.134a6,6,0,0,1,1.281,6.438L96.9,47.761a6,6,0,0,0,0,4.478l1.637,4.07a6,6,0,0,1-1.281,6.438l-3.07,3.134a6,6,0,0,0-1.714,4.137L92.428,74.4a6,6,0,0,1-3.647,5.457l-4.035,1.72a6,6,0,0,0-3.166,3.166l-1.72,4.035A6,6,0,0,1,74.4,92.428l-4.386.045a6,6,0,0,0-4.137,1.714l-3.134,3.07a6,6,0,0,1-6.438,1.281L52.239,96.9a6,6,0,0,0-4.478,0l-4.07,1.637a6,6,0,0,1-6.438-1.281l-3.134-3.07a6,6,0,0,0-4.137-1.714L25.6,92.428a6,6,0,0,1-5.457-3.647l-1.72-4.035a6,6,0,0,0-3.166-3.166l-4.035-1.72A6,6,0,0,1,7.572,74.4l-.045-4.386A6,6,0,0,0,5.813,65.88l-3.07-3.134a6,6,0,0,1-1.28-6.438L3.1,52.239a6,6,0,0,0,0-4.478l-1.637-4.07a6,6,0,0,1,1.281-6.438l3.07-3.134a6,6,0,0,0,1.714-4.137L7.572,25.6a6,6,0,0,1,3.647-5.457l4.035-1.72a6,6,0,0,0,3.166-3.166l1.72-4.035A6,6,0,0,1,25.6,7.572l4.386-.045A6,6,0,0,0,34.12,5.813l3.134-3.07a6,6,0,0,1,6.438-1.28L47.761,3.1a6,6,0,0,0,4.478,0Z" stroke="none"/>
    <path d="M 41.45393371582031 2.029281616210938 C 40.13701248168945 2.02935791015625 38.89395904541016 2.536628723144531 37.95377349853516 3.4576416015625 L 34.82022857666016 6.527236938476562 C 33.52332305908203 7.79766845703125 31.80930328369141 8.507637023925781 29.99390411376953 8.526344299316406 L 25.60761260986328 8.571571350097656 C 23.62318420410156 8.592025756835938 21.83804321289062 9.784828186035156 21.05972290039062 11.61035919189453 L 19.33938598632812 15.64546966552734 C 18.62738800048828 17.31549072265625 17.31553649902344 18.62734985351562 15.64549255371094 19.33934783935547 L 11.61039733886719 21.0596923828125 C 9.78485107421875 21.83798980712891 8.592056274414062 23.62313079833984 8.571586608886719 25.60755920410156 L 8.526374816894531 29.99385070800781 C 8.507667541503906 31.80924987792969 7.797691345214844 33.52326965332031 6.527252197265625 34.82014465332031 L 3.457656860351562 37.95372009277344 C 2.068916320800781 39.37137222290039 1.650054931640625 41.47710800170898 2.390556335449219 43.31830596923828 L 4.02734375 47.38802719116211 C 4.704757690429688 49.07237243652344 4.704757690429688 50.9276008605957 4.02734375 52.61196136474609 L 2.390556335449219 56.68166732788086 C 1.650054931640625 58.52288055419922 2.06890869140625 60.62861251831055 3.4576416015625 62.04626846313477 L 6.527236938476562 65.1798095703125 C 7.797683715820312 66.47670745849609 8.507652282714844 68.19071960449219 8.526359558105469 70.00611877441406 L 8.571571350097656 74.39241027832031 C 8.592041015625 76.37683868408203 9.784843444824219 78.1619873046875 11.61037445068359 78.94029235839844 L 15.64546966552734 80.66062927246094 C 17.31549072265625 81.37262725830078 18.62734985351562 82.68447875976562 19.33936309814453 84.35452270507812 L 21.05972290039062 88.38961029052734 C 21.8380126953125 90.21516418457031 23.62316131591797 91.407958984375 25.60759735107422 91.42841339111328 L 29.99388122558594 91.47364044189453 C 31.80928039550781 91.49234771728516 33.52329254150391 92.20231628417969 34.82017517089844 93.47276306152344 L 37.95373153686523 96.54234313964844 C 38.89401245117188 97.46345520019531 40.13703918457031 97.97071838378906 41.45383834838867 97.97071838378906 C 42.0949592590332 97.97071838378906 42.72226715087891 97.84917449951172 43.31833267211914 97.60944366455078 L 47.38801193237305 95.97266387939453 C 48.22213363647461 95.63718414306641 49.10093307495117 95.46707916259766 50 95.46707916259766 C 50.89906692504883 95.46707916259766 51.77786636352539 95.63718414306641 52.61197280883789 95.97266387939453 L 56.68169403076172 97.60944366455078 C 57.27774810791016 97.84917449951172 57.90505218505859 97.97071838378906 58.54618835449219 97.97071838378906 C 59.86297225952148 97.97071838378906 61.10599899291992 97.46345520019531 62.04627990722656 96.54234313964844 L 65.1798095703125 93.47276306152344 C 66.47673034667969 92.20230865478516 68.19075775146484 91.49233245849609 70.00613403320312 91.47362518310547 L 74.39241027832031 91.42841339111328 C 76.37683868408203 91.407958984375 78.1619873046875 90.21516418457031 78.94029235839844 88.38961029052734 L 80.66062927246094 84.35452270507812 C 81.37262725830078 82.68449401855469 82.68447875976562 81.37264251708984 84.35452270507812 80.66061401367188 L 88.38961029052734 78.9403076171875 C 90.21516418457031 78.1619873046875 91.407958984375 76.37683868408203 91.42841339111328 74.39241027832031 L 91.47364044189453 70.00611877441406 C 91.49234771728516 68.19073486328125 92.20231628417969 66.47673034667969 93.47274780273438 65.17984008789062 L 96.54234313964844 62.04626846313477 C 97.93109130859375 60.62860107421875 98.34994506835938 58.52288055419922 97.60944366455078 56.68167877197266 L 95.97266387939453 52.61198806762695 C 95.29522705078125 50.9276123046875 95.29522705078125 49.07237243652344 95.97265625 47.38803863525391 L 97.60944366455078 43.31832122802734 C 98.34994506835938 41.47711944580078 97.93108367919922 39.37138748168945 96.54234313964844 37.95373153686523 L 93.47274780273438 34.8201904296875 C 92.20231628417969 33.52327728271484 91.49234771728516 31.80926513671875 91.47364044189453 29.99386596679688 L 91.42841339111328 25.60758972167969 C 91.407958984375 23.62316131591797 90.21516418457031 21.8380126953125 88.38961029052734 21.0596923828125 L 84.35452270507812 19.33936309814453 C 82.68447875976562 18.62735748291016 81.37262725830078 17.31550598144531 80.66062927246094 15.64547729492188 L 78.94027709960938 11.61038970947266 C 78.1619873046875 9.784843444824219 76.37683868408203 8.592041015625 74.39241027832031 8.571586608886719 L 70.00611877441406 8.526359558105469 C 68.19073486328125 8.507652282714844 66.47671508789062 7.797683715820312 65.17979431152344 6.527252197265625 L 62.04626846313477 3.457656860351562 C 61.10599899291992 2.53656005859375 59.86297225952148 2.029296875 58.54617309570312 2.029296875 C 57.9050407409668 2.029296875 57.27773284912109 2.150840759277344 56.68167877197266 2.390571594238281 L 52.61202621459961 4.027359008789062 C 51.77789306640625 4.362815856933594 50.89910507202148 4.532905578613281 50.00003814697266 4.532905578613281 C 49.10097503662109 4.532905578613281 48.22217178344727 4.362815856933594 47.38805389404297 4.02734375 L 43.318359375 2.390556335449219 C 42.72219848632812 2.150787353515625 42.09490585327148 2.029243469238281 41.45393371582031 2.029281616210938 M 41.45386123657227 1.029273986816406 C 42.20705413818359 1.029228210449219 42.96615219116211 1.171058654785156 43.69150543212891 1.462783813476562 L 47.76119995117188 3.099571228027344 C 49.19783782958984 3.677360534667969 50.80223846435547 3.677360534667969 52.2388916015625 3.099571228027344 L 56.30853271484375 1.462799072265625 C 58.51832580566406 0.574066162109375 61.04458999633789 1.076553344726562 62.74605178833008 2.743293762207031 L 65.87958526611328 5.812896728515625 C 66.98576354980469 6.896476745605469 68.46802520751953 7.510452270507812 70.01642608642578 7.526412963867188 L 74.40271759033203 7.571640014648438 C 76.78440856933594 7.596183776855469 78.92607116699219 9.027198791503906 79.86017608642578 11.21820068359375 L 81.58050537109375 15.2532958984375 C 82.18779754638672 16.67771911621094 83.32228088378906 17.81218719482422 84.7467041015625 18.41947937011719 L 88.78179931640625 20.13981628417969 C 90.97280120849609 21.07393646240234 92.40381622314453 23.21558380126953 92.42835998535156 25.59728240966797 L 92.47358703613281 29.98355865478516 C 92.48954772949219 31.53195953369141 93.10352325439453 33.01423645019531 94.18710327148438 34.12039947509766 L 97.25670623779297 37.25394821166992 C 98.92345428466797 38.95541381835938 99.42595672607422 41.48166656494141 98.53721618652344 43.69145202636719 L 96.90042877197266 47.76117324829102 C 96.32262420654297 49.19781494140625 96.32263946533203 50.80220031738281 96.90043640136719 52.23883819580078 L 98.53721618652344 56.30854797363281 C 99.42595672607422 58.51831817626953 98.92345428466797 61.04458618164062 97.25670623779297 62.74605178833008 L 94.18710327148438 65.87960815429688 C 93.10352325439453 66.98577880859375 92.48954772949219 68.46804046630859 92.47358703613281 70.01642608642578 L 92.42835998535156 74.40271759033203 C 92.40381622314453 76.78440856933594 90.97280120849609 78.92607116699219 88.78179931640625 79.86018371582031 L 84.7467041015625 81.58050537109375 C 83.32229614257812 82.18779754638672 82.18779754638672 83.32228088378906 81.58050537109375 84.7467041015625 L 79.86018371582031 88.78179931640625 C 78.92607116699219 90.97280120849609 76.78440093994141 92.40381622314453 74.40271759033203 92.42835998535156 L 70.01644134521484 92.47357177734375 C 68.46804046630859 92.48953247070312 66.98577880859375 93.10352325439453 65.87960052490234 94.18711853027344 L 62.74606704711914 97.25670623779297 C 61.04458618164062 98.92346954345703 58.51832580566406 99.42595672607422 56.30854797363281 98.53721618652344 L 52.23883819580078 96.90043640136719 C 50.80220031738281 96.32262420654297 49.19781494140625 96.32262420654297 47.76116180419922 96.90043640136719 L 43.69146728515625 98.53721618652344 C 41.48167419433594 99.42596435546875 38.95540618896484 98.92345428466797 37.25394821166992 97.25670623779297 L 34.12039947509766 94.18711853027344 C 33.01423645019531 93.10352325439453 31.53195953369141 92.48954772949219 29.98357391357422 92.47358703613281 L 25.5972900390625 92.42835998535156 C 23.21559906005859 92.40381622314453 21.07393646240234 90.97281646728516 20.13982391357422 88.78179931640625 L 18.41947937011719 84.7467041015625 C 17.81218719482422 83.32229614257812 16.67770385742188 82.18779754638672 15.25328063964844 81.58050537109375 L 11.21818542480469 79.86018371582031 C 9.027198791503906 78.92607116699219 7.596183776855469 76.78440856933594 7.571624755859375 74.40271759033203 L 7.526412963867188 70.01642608642578 C 7.510452270507812 68.46802520751953 6.896476745605469 66.98576354980469 5.812881469726562 65.87960052490234 L 2.743278503417969 62.74605178833008 C 1.076530456542969 61.04458618164062 0.5740432739257812 58.51831817626953 1.462783813476562 56.30853271484375 L 3.099571228027344 52.23882675170898 C 3.677360534667969 50.80218505859375 3.677360534667969 49.19778823852539 3.099571228027344 47.76116180419922 L 1.462783813476562 43.69144058227539 C 0.5740432739257812 41.48165512084961 1.076545715332031 38.95539855957031 2.743293762207031 37.25393295288086 L 5.812896728515625 34.12037658691406 C 6.896492004394531 33.01421356201172 7.510467529296875 31.53194427490234 7.52642822265625 29.98354339599609 L 7.571640014648438 25.59725189208984 C 7.596199035644531 23.215576171875 9.027214050292969 21.07390594482422 11.21821594238281 20.13980102539062 L 15.25330352783203 18.41946411132812 C 16.677734375 17.81217193603516 17.81221008300781 16.67769622802734 18.41950988769531 15.25328063964844 L 20.13983917236328 11.21817016601562 C 21.07395935058594 9.027183532714844 23.21562957763672 7.596176147460938 25.59730529785156 7.571624755859375 L 29.98359680175781 7.526397705078125 C 31.53199768066406 7.51043701171875 33.01426696777344 6.896476745605469 34.12043762207031 5.812881469726562 L 37.25398635864258 2.743278503417969 C 38.39695358276367 1.623634338378906 39.91246795654297 1.029365539550781 41.45386123657227 1.029273986816406 Z" stroke="none" fill="#fff"/>
  </g>
</svg>
