<svg xmlns="http://www.w3.org/2000/svg" width="78.229" height="72.795" viewBox="0 0 78.229 72.795">
  <path id="icon" d="M11747.223-10013.642a9.207,9.207,0,0,1-9.221-9.223v-54.351a9.206,9.206,0,0,1,9.221-9.222h40.928a9.208,9.208,0,0,1,9.225,9.222v7.083h9.635a9.208,9.208,0,0,1,9.222,9.223v34.012a13.249,13.249,0,0,1-13.256,13.256Zm50.152-13.174a5.608,5.608,0,0,0,5.6,5.6,5.608,5.608,0,0,0,5.6-5.6v-34.094a1.654,1.654,0,0,0-1.65-1.646h-9.55Zm-51.8-50.4v54.351a1.656,1.656,0,0,0,1.647,1.649h43.811a12.961,12.961,0,0,1-1.235-5.6v-50.4a1.653,1.653,0,0,0-1.647-1.647h-40.928A1.655,1.655,0,0,0,11745.575-10077.215Zm11.859,47.27a3.832,3.832,0,0,1-3.788-3.788,3.779,3.779,0,0,1,3.788-3.789h20.587a3.832,3.832,0,0,1,3.787,3.789,3.778,3.778,0,0,1-3.787,3.788Zm0-16.306a3.832,3.832,0,0,1-3.788-3.789,3.778,3.778,0,0,1,3.788-3.788h20.587a3.831,3.831,0,0,1,3.787,3.788,3.778,3.778,0,0,1-3.787,3.789Zm0-16.3a3.832,3.832,0,0,1-3.788-3.787,3.778,3.778,0,0,1,3.788-3.79h20.587a3.831,3.831,0,0,1,3.787,3.79,3.777,3.777,0,0,1-3.787,3.787Z" transform="translate(-11738.002 10086.437)" fill="#fcfbfb" opacity="0.505"/>
</svg>
