<svg xmlns="http://www.w3.org/2000/svg" xmlns:xlink="http://www.w3.org/1999/xlink" width="90.999" height="90.423" viewBox="0 0 90.999 90.423">
  <defs>
    <clipPath id="clip-path">
      <rect id="Rectangle_108569" data-name="Rectangle 108569" width="90.999" height="90.423" transform="translate(0 0)" fill="#fcfbfb"/>
    </clipPath>
  </defs>
  <g id="Group_195923" data-name="Group 195923" opacity="0.5">
    <g id="Group_195922" data-name="Group 195922" clip-path="url(#clip-path)">
      <path id="Path_378081" data-name="Path 378081" d="M85.718,47.994v-1.97c0-1.754,0-3.5-.005-5.246a3.964,3.964,0,0,0-.983-3.041,3.74,3.74,0,0,0-2.948-.755c-2.141.138-4.311.331-6.41.517-2.121.188-4.315.382-6.472.52a4.612,4.612,0,0,1-2.38-.641c-1.09-.612-2.17-1.3-3.214-1.963-.9-.571-1.8-1.142-2.716-1.678a10.6,10.6,0,0,0-1.887-.8l-.172-.06a19.487,19.487,0,0,0,5.94-13.48A19.094,19.094,0,0,0,59.185,5.764,18.77,18.77,0,0,0,33.469,4.486,19.627,19.627,0,0,0,26.8,18.421a19.085,19.085,0,0,0,5.712,14.317q-.867.51-1.748,1.016c-1.883,1.088-3.83,2.212-5.648,3.494A4.086,4.086,0,0,1,21.959,38c-4.219-.434-8.563-.779-12.908-1.025a3.179,3.179,0,0,0-2.435.733,3.6,3.6,0,0,0-1,2.667c-.032,1.256-.057,2.742,0,4.231l.011.266c.1,2.311.05,3.761-2.076,4.418a.72.72,0,0,0-.317.212C1.1,51.371-.194,55.4.024,59.543c.184,3.5,1.38,6.268,3.282,7.6,2.325,1.634,2.421,3.305,2.3,5.666-.014.29-.011.58-.007.87l0,.38c0,5.473.323,5.806,5.764,5.936a59.1,59.1,0,0,1,31.6,9.494,4.916,4.916,0,0,0,2.708.93,4.723,4.723,0,0,0,2.642-.91,55.094,55.094,0,0,1,14.511-6.848A69.96,69.96,0,0,1,82.01,79.9c2.65-.065,3.689-1.15,3.7-3.87.009-1.742.007-3.484.005-5.228V68.83A8.628,8.628,0,0,0,90.969,60.5l-.012-.78c-.012-.769-.026-1.565.018-2.335.256-4.454-1.512-7.612-5.257-9.39M79.45,72.833q0,.441.008.895a66.712,66.712,0,0,0-30.62,8.163,5.019,5.019,0,0,1-.068-.719l0-2.842c-.008-8.184-.017-16.648.04-24.971a2.179,2.179,0,0,1,.749-1.522,57.839,57.839,0,0,1,29.76-8.561.269.269,0,0,1,.053.01v4.746c-3.68,1.75-5.42,4.89-5.169,9.338.036.651.026,1.324.017,1.975-.008.563-.017,1.126,0,1.687a8.143,8.143,0,0,0,4.354,7.278,1.393,1.393,0,0,1,.9,1.556c-.049.974-.039,1.942-.028,2.967m5.259-13.455c.011.6.02,1.162-.023,1.727a2.08,2.08,0,0,1-2.093,2.03h-.03a2.055,2.055,0,0,1-2.07-2.074c-.072-1.872-.071-3.677.006-5.367a2.043,2.043,0,0,1,2.086-2.014h.029a2.08,2.08,0,0,1,2.075,2.088c.041.619.031,1.261.02,1.883,0,.292-.01.583-.01.874s0,.569.01.853m-39-27.723h-.081a12.662,12.662,0,0,1-12.594-12.6,12.732,12.732,0,0,1,3.747-9.107A12.48,12.48,0,0,1,45.67,6.239h.023A12.461,12.461,0,0,1,54.589,10a12.7,12.7,0,0,1-8.877,21.651m-13.236,8.9-.7-.262c5.648-3.575,22.064-3.63,27.685-.083q-1.04.45-2.082.9c-2.284.984-4.646,2-6.949,3.06a15.094,15.094,0,0,0-1.887,1.106A6.238,6.238,0,0,1,45.57,46.6a6.027,6.027,0,0,1-2.933-1.364,15.96,15.96,0,0,0-1.72-1.068c-1.494-.755-3.111-1.5-4.944-2.263-1.149-.482-2.29-.907-3.5-1.357M10.853,59.307a15.4,15.4,0,0,1-.029,1.856,1.979,1.979,0,0,1-2.051,1.958,1.956,1.956,0,0,1-1.453-.489,2.078,2.078,0,0,1-.672-1.47,52.98,52.98,0,0,1,.006-5.531,1.94,1.94,0,0,1,2.04-1.938c.046,0,.092,0,.138,0a2.02,2.02,0,0,1,1.994,1.982,17.9,17.9,0,0,1,.025,1.874c-.006.292-.012.585-.012.876s.007.591.014.886M11.845,71.5a3.545,3.545,0,0,1,1.855-3.89c2.3-1.535,3.8-5.192,3.835-9.315.034-3.9-1.225-7.113-3.366-8.6-2.378-1.65-2.336-3.386-2.279-5.788.007-.245.013-.495.016-.75.851.083,1.694.157,2.533.232,2.234.2,4.344.385,6.469.709a54.081,54.081,0,0,1,20.646,7.6,2.217,2.217,0,0,1,.951,1.406c.064,8.151.057,16.44.049,24.456l0,4.056a1.77,1.77,0,0,1-.028.287,66.837,66.837,0,0,0-30.657-8.168c0-.162.007-.319.011-.471a13.588,13.588,0,0,0-.032-1.768" fill="#fcfbfb"/>
    </g>
  </g>
</svg>
