<svg xmlns="http://www.w3.org/2000/svg" width="12.636" height="11.204" viewBox="0 0 12.636 11.204">
  <path id="Path_169814" data-name="Path 169814" d="M218.967,404.743a.935.935,0,0,1-.354-.07.923.923,0,0,1-.571-.855v-7.2a3.077,3.077,0,0,1,3.074-3.074H227.6a3.077,3.077,0,0,1,3.074,3.074v3.774a3.077,3.077,0,0,1-3.074,3.073H221.39a1.818,1.818,0,0,0-1.3.537l-.475.475A.921.921,0,0,1,218.967,404.743Zm2.149-10.2a2.077,2.077,0,0,0-2.074,2.074v7.022l.345-.345a2.816,2.816,0,0,1,2-.83H227.6a2.076,2.076,0,0,0,2.074-2.073v-3.774a2.076,2.076,0,0,0-2.074-2.074Z" transform="translate(-218.042 -393.539)" fill="#9e9d9d"/>
</svg>
