<svg xmlns="http://www.w3.org/2000/svg" width="15.207" height="14.605" viewBox="0 0 15.207 14.605">
  <path id="Path_169813" data-name="Path 169813" d="M154.823,396.912a1.71,1.71,0,0,0-1.708-1.708h-3.191c0-.9-.069-2.28-.139-3.333a1.335,1.335,0,0,0-.558-1.056,2.417,2.417,0,0,0-1.843-.158.5.5,0,0,0-.356.531,6.71,6.71,0,0,1-2.484,5.41,2.819,2.819,0,0,1-.49.217v-.558a.5.5,0,0,0-.5-.5h-3.438a.5.5,0,0,0-.5.5v8.389a.5.5,0,0,0,.5.5h3.438a.492.492,0,0,0,.48-.4h7.7a1.71,1.71,0,0,0,1.708-1.708,1.689,1.689,0,0,0-.109-.6,1.707,1.707,0,0,0,.8-1.44,1.685,1.685,0,0,0-.109-.6,1.711,1.711,0,0,0,.8-1.44,1.7,1.7,0,0,1,0-2.041Zm-14.207-.155h2.438v7.389h-2.438Zm12.873,1.6a.707.707,0,0,1,.334.6.7.7,0,0,1-.611.7.5.5,0,0,0-.285.848.7.7,0,0,1,.205.5.707.707,0,0,1-.61.7.5.5,0,0,0-.285.848.7.7,0,0,1,.205.5.708.708,0,0,1-.708.708h-7.68v-5.865a4.824,4.824,0,0,0,1.087-.478,7.832,7.832,0,0,0,2.908-5.852,1,1,0,0,1,.608.09c.034.023.115.08.13.3.091,1.362.166,3.046.127,3.738a.5.5,0,0,0,.5.528h3.7a.706.706,0,0,1,.374,1.306.5.5,0,0,0,0,.845Z" transform="translate(-139.616 -390.541)" fill="#9e9d9d"/>
</svg>
