<svg xmlns="http://www.w3.org/2000/svg" width="14.324" height="14.509" viewBox="0 0 14.324 14.509">
  <path id="Path_169815" data-name="Path 169815" d="M318.771,406.4a.5.5,0,0,1-.482-.364,8.861,8.861,0,0,1,8.013-11.267v-2.379a.5.5,0,0,1,.308-.462.506.506,0,0,1,.545.108l4.975,4.976a.5.5,0,0,1,0,.707l-4.975,4.974a.5.5,0,0,1-.853-.353V400.3a7.912,7.912,0,0,0-7.05,5.73A.5.5,0,0,1,318.771,406.4Zm8.531-12.8v1.656a.5.5,0,0,1-.5.5,7.9,7.9,0,0,0-7.852,7.88c0,.143,0,.287.013.431a8.919,8.919,0,0,1,7.835-4.778h0a.5.5,0,0,1,.5.5v1.347l3.767-3.768Z" transform="translate(-317.952 -391.887)" fill="#9e9d9d"/>
</svg>
