<svg xmlns="http://www.w3.org/2000/svg" width="114.178" height="106.02" viewBox="0 0 114.178 106.02">
  <g id="Group_195802" data-name="Group 195802" transform="translate(-122.414 -29.613)">
    <path id="logo_inspiart" d="M-85.638,24088.393l-.034-18.018h2.561v.846a5.981,5.981,0,0,1,3.454-1.187c3.718,0,6.527,3.037,6.527,7.055s-2.808,7.049-6.527,7.049a5.932,5.932,0,0,1-3.421-1.143v5.4Zm2.561-13.99v5.359a4.822,4.822,0,0,0,3.421,2.016c2.3,0,3.966-1.975,3.966-4.689s-1.668-4.693-3.966-4.693A4.837,4.837,0,0,0-83.076,24074.4Zm47.391,4.75v-6.408h-2.4v-2.369h2.4v-3.447h2.561v3.447h3.679v2.369h-3.679v6.408c0,1.521.8,2.625,1.893,2.625a2.527,2.527,0,0,0,1.764-.908l.3-.383,1.87,1.32-.32.445a4.838,4.838,0,0,1-3.612,1.885C-33.815,24084.137-35.686,24082.037-35.686,24079.152Zm-28.315.234c0-2.842,2.146-4.752,5.331-4.752a10.634,10.634,0,0,1,3.4.654,2.781,2.781,0,0,0-2.96-2.895,3.805,3.805,0,0,0-2.741,1.355l-.208.271-1.882-1.326.23-.311a6.068,6.068,0,0,1,4.6-2.352c3.365,0,5.544,2.271,5.544,5.783v7.979H-55.25a8.313,8.313,0,0,0,0-.846,5.37,5.37,0,0,1-3.421,1.188C-61.855,24084.137-64,24082.225-64,24079.387Zm2.567,0c0,1.512,1.005,2.391,2.764,2.391a4.86,4.86,0,0,0,3.421-2.016v-1.863a8.627,8.627,0,0,0-3.421-.895C-60.429,24077-61.434,24077.867-61.434,24079.387Zm-37.853,1.623-.225-.391,1.887-1.324.309.527a4.194,4.194,0,0,0,3.23,1.955c1.9,0,2.764-1.008,2.764-1.932,0-.85-.9-1.2-2.814-1.738-1.949-.561-4.623-1.32-4.623-4.131,0-1.908,1.713-3.943,4.892-3.943a6.375,6.375,0,0,1,4.685,2.326l-1.814,1.422a4.148,4.148,0,0,0-2.87-1.387c-1.517,0-2.331.816-2.331,1.582,0,.846.9,1.2,2.809,1.744,1.955.555,4.628,1.32,4.628,4.125,0,2.135-1.831,4.291-5.325,4.291A6.44,6.44,0,0,1-99.287,24081.01Zm77.969,2.785v-1.713l9.408-13.943h-8.97v-2.367h12.4v1.707l-9.408,13.947H-7.792l-.556,2.369Zm-27.158,0v-9.7c0-.3-.011-.564-.028-.818v-2.9h2.589s-.017.59,0,.689a4.917,4.917,0,0,1,2.983-1.031,4.866,4.866,0,0,1,1.792.307l.848.355-.893,2.359-.91-.381a2.577,2.577,0,0,0-.837-.154,4.155,4.155,0,0,0-2.983,1.867v9.408Zm-21.316,0v-13.42h2.561v13.42Zm-34.865,0v-8.32a2.887,2.887,0,0,0-2.876-3.08,4.818,4.818,0,0,0-3.421,2.02v9.381h-2.561v-13.42h2.561v.822a5.945,5.945,0,0,1,3.421-1.164,5.2,5.2,0,0,1,5.437,5.441v8.32Zm-16.183,0v-18.023h2.561v18.023Zm50.721-16.607a1.67,1.67,0,0,1,1.606-1.643,1.671,1.671,0,0,1,1.612,1.643,1.671,1.671,0,0,1-1.612,1.645A1.671,1.671,0,0,1-70.118,24067.188Zm-9.729-12.809,42.386-8.07a37.069,37.069,0,0,1-26.855,11.473A37,37,0,0,1-79.847,24054.379Zm-21.67-33.807a38.548,38.548,0,0,1,.258-4.357l26.282,9.617-11.549,24.59A37.141,37.141,0,0,1-101.517,24020.572Zm32.584,7.471,31.882,11.662-41.026,7.814Zm2.735-5.83,16.772-35.734a37.207,37.207,0,0,1,22.316,34.094,37.022,37.022,0,0,1-3.078,14.82Zm-28.843-10.551,36.364-20.547L-72.247,24020Zm30.725-28.289a36.5,36.5,0,0,1,5.561.416l-39.948,22.576A37.217,37.217,0,0,1-64.316,23983.373Z" transform="translate(243.753 -23953.26)" fill="#fff" stroke="rgba(0,0,0,0)" stroke-width="1"/>
  </g>
</svg>
