<svg xmlns="http://www.w3.org/2000/svg" width="40" height="40" viewBox="0 0 40 40">
  <g id="line" transform="translate(0.196)">
    <circle id="Ellipse_3" data-name="Ellipse 3" cx="20" cy="20" r="20" transform="translate(-0.196)" fill="#00b900"/>
    <g id="line-2" data-name="line" transform="translate(5.763 6.622)">
      <g id="g7962">
        <path id="path7964" d="M-188.915-76.653c0-6.283-6.3-11.394-14.041-11.394S-217-82.936-217-76.653c0,5.633,5,10.35,11.743,11.242.457.1,1.08.3,1.237.692a2.882,2.882,0,0,1,.045,1.27s-.165.991-.2,1.2c-.061.355-.282,1.388,1.216.757s8.086-4.761,11.032-8.152h0a10.137,10.137,0,0,0,3.01-7.01" transform="translate(216.997 88.047)" fill="#fff"/>
      </g>
      <g id="g7966" transform="translate(9.929 8.358)">
        <path id="path7968" d="M-8.467,0h-.985a.274.274,0,0,0-.274.273V6.391a.273.273,0,0,0,.274.273h.985a.273.273,0,0,0,.273-.273V.273A.273.273,0,0,0-8.467,0" transform="translate(9.726)" fill="#00b900"/>
      </g>
      <g id="g7970" transform="translate(12.419 8.358)">
        <path id="path7972" d="M-37.323,0h-.985a.273.273,0,0,0-.273.273V3.908l-2.8-3.786a.3.3,0,0,0-.021-.028l0,0-.016-.017-.005,0-.015-.012-.007-.006-.014-.01-.008,0L-41.489.03l-.009,0-.016-.007-.009,0-.016-.005-.009,0-.016,0h-.012l-.015,0H-42.6a.274.274,0,0,0-.274.273V6.391a.273.273,0,0,0,.274.273h.985a.273.273,0,0,0,.274-.273V2.757l2.807,3.791a.271.271,0,0,0,.069.068l0,0,.017.01.008,0,.013.006.013.006.008,0,.019.006h0a.273.273,0,0,0,.07.009h.985a.273.273,0,0,0,.273-.273V.273A.273.273,0,0,0-37.323,0" transform="translate(42.871 0)" fill="#00b900"/>
      </g>
      <g id="g7974" transform="translate(4.606 8.358)">
        <path id="path7976" d="M-28.308-34.526h-2.676v-4.859a.273.273,0,0,0-.273-.273h-.985a.274.274,0,0,0-.273.273v6.117h0a.272.272,0,0,0,.076.189l0,0,0,0a.271.271,0,0,0,.189.076h3.935a.273.273,0,0,0,.273-.274v-.985a.273.273,0,0,0-.273-.273" transform="translate(32.515 39.658)" fill="#00b900"/>
      </g>
      <g id="g7978" transform="translate(19.198 8.358)">
        <path id="path7980" d="M-28.308-10.307a.273.273,0,0,0,.273-.273v-.985a.273.273,0,0,0-.273-.274h-3.935a.272.272,0,0,0-.189.077l0,0,0,0a.272.272,0,0,0-.076.188h0v6.117h0a.272.272,0,0,0,.076.189l0,0,0,0a.272.272,0,0,0,.189.076h3.935a.273.273,0,0,0,.273-.273v-.985a.273.273,0,0,0-.273-.273h-2.676V-7.741h2.676a.273.273,0,0,0,.273-.273V-9a.273.273,0,0,0-.273-.274h-2.676v-1.034Z" transform="translate(32.515 11.839)" fill="#00b900"/>
      </g>
    </g>
  </g>
</svg>
